<svg width="100" height="100" viewBox="0 0 100 100" fill="none" xmlns="http://www.w3.org/2000/svg">
<circle cx="50" cy="50" r="50" fill="#F8F9FA"/>
<path d="M80.9687 50.2689V75.9262C80.9687 76.7034 80.66 77.4488 80.1105 77.9985C79.5611 78.5482 78.8158 78.8571 78.0386 78.8575H60.6422C60.2574 78.8575 59.8763 78.7816 59.5207 78.6342C59.1652 78.4869 58.8421 78.2709 58.5701 77.9987C58.298 77.7265 58.0822 77.4034 57.935 77.0478C57.7878 76.6922 57.7121 76.311 57.7122 75.9262V50.2689C57.7121 49.8841 57.7878 49.5031 57.9351 49.1476C58.0823 48.792 58.2981 48.469 58.5702 48.1969C58.8423 47.9248 59.1653 47.709 59.5209 47.5618C59.8764 47.4145 60.2574 47.3388 60.6422 47.3389H64.5994V47.3478C64.5993 47.6339 64.6556 47.9172 64.7651 48.1815C64.8745 48.4459 65.035 48.686 65.2373 48.8883C65.4396 49.0907 65.6798 49.2511 65.9441 49.3606C66.2085 49.47 66.4918 49.5263 66.7779 49.5263H71.903C72.1891 49.5263 72.4724 49.47 72.7367 49.3606C73.0011 49.2511 73.2413 49.0907 73.4436 48.8883C73.6459 48.686 73.8063 48.4459 73.9158 48.1815C74.0253 47.9172 74.0816 47.6339 74.0815 47.3478V47.3389H78.0386C78.8157 47.3389 79.5609 47.6477 80.1104 48.1971C80.6599 48.7466 80.9686 49.4919 80.9687 50.2689ZM65.8511 66.5126V62.3257H61.6655V66.5126H65.8511Z" fill="#E9ECEF"/>
<path d="M64.5994 47.3392V47.2059C64.5993 46.9198 64.6556 46.6364 64.7651 46.3721C64.8745 46.1078 65.035 45.8676 65.2373 45.6653C65.4396 45.463 65.6798 45.3025 65.9441 45.193C66.2085 45.0836 66.4918 45.0273 66.7779 45.0273H71.903C72.1891 45.0273 72.4724 45.0836 72.7367 45.193C73.0011 45.3025 73.2413 45.463 73.4436 45.6653C73.6459 45.8676 73.8063 46.1078 73.9158 46.3721C74.0253 46.6364 74.0816 46.9198 74.0815 47.2059V47.348C74.0816 47.6342 74.0253 47.9175 73.9158 48.1818C73.8063 48.4461 73.6459 48.6863 73.4436 48.8886C73.2413 49.0909 73.0011 49.2514 72.7367 49.3609C72.4724 49.4703 72.1891 49.5266 71.903 49.5266H66.7779C66.4918 49.5266 66.2085 49.4703 65.9441 49.3609C65.6798 49.2514 65.4396 49.0909 65.2373 48.8886C65.035 48.6863 64.8745 48.4461 64.7651 48.1818C64.6556 47.9175 64.5993 47.6342 64.5994 47.348V47.3392Z" fill="#ADB5BD"/>
<path d="M67.678 35.8978V45.027H66.7779C66.4918 45.0269 66.2085 45.0832 65.9442 45.1926C65.6798 45.3021 65.4396 45.4626 65.2373 45.6649C65.035 45.8672 64.8746 46.1074 64.7651 46.3717C64.6556 46.636 64.5993 46.9194 64.5994 47.2055V47.3388H60.6423C60.2575 47.3387 59.8764 47.4144 59.5209 47.5617C59.1654 47.7089 58.8424 47.9247 58.5703 48.1968C58.2982 48.4689 58.0823 48.792 57.9351 49.1475C57.7879 49.503 57.7121 49.884 57.7122 50.2688V69.1595L43.854 77.1601V49.6493L67.6755 35.8965L67.678 35.8978Z" fill="#C16752"/>
<path d="M43.8541 49.6495L31.7097 42.6379L55.5299 28.8838H55.5312L67.6755 35.8967L43.8541 49.6495Z" fill="#AF593C"/>
<path d="M65.8512 62.3257H61.6655V66.5126H65.8512V62.3257Z" fill="#ADB5BD"/>
<path d="M55.5298 28.8838L31.7096 42.6379L20.0337 35.8967L43.8539 22.1426L55.5298 28.8838Z" fill="#C16752"/>
<path d="M43.854 49.6493V77.1601L20.0312 63.406V35.8978L20.0338 35.8965L31.7097 42.6377L43.854 49.6493Z" fill="#E48E66"/>
<path d="M62.5961 59.2611H61.6655C61.4298 59.2611 61.2038 59.1675 61.0371 59.0008C60.8705 58.8342 60.7769 58.6082 60.7769 58.3725V54.1855C60.7769 53.9499 60.8705 53.7238 61.0371 53.5572C61.2038 53.3905 61.4298 53.2969 61.6655 53.2969H65.8512C66.0869 53.2969 66.3129 53.3905 66.4796 53.5572C66.6462 53.7238 66.7398 53.9499 66.7398 54.1855V54.7835C66.74 54.9938 66.6657 55.1973 66.5299 55.3579C66.3942 55.5185 66.2059 55.6258 65.9986 55.6607C65.7912 55.6955 65.5782 55.6557 65.3974 55.5484C65.2166 55.441 65.0797 55.273 65.0111 55.0742H62.5542V57.4838H62.5961C62.8318 57.4838 63.0578 57.5774 63.2245 57.7441C63.3911 57.9107 63.4848 58.1368 63.4848 58.3725C63.4848 58.6082 63.3911 58.8342 63.2245 59.0008C63.0578 59.1675 62.8318 59.2611 62.5961 59.2611Z" fill="#ADB5BD"/>
<path d="M62.5961 75.5401H61.6655C61.4298 75.5401 61.2038 75.4465 61.0371 75.2799C60.8705 75.1132 60.7769 74.8872 60.7769 74.6515V70.4658C60.7769 70.2301 60.8705 70.0041 61.0371 69.8374C61.2038 69.6708 61.4298 69.5771 61.6655 69.5771H65.8512C66.0869 69.5771 66.3129 69.6708 66.4796 69.8374C66.6462 70.0041 66.7398 70.2301 66.7398 70.4658V71.3215C66.742 71.4382 66.7212 71.5542 66.6785 71.6628C66.6359 71.7715 66.5722 71.8707 66.4912 71.9547C66.4102 72.0388 66.3135 72.106 66.2065 72.1527C66.0995 72.1994 65.9844 72.2245 65.8677 72.2267C65.751 72.2288 65.635 72.208 65.5263 72.1653C65.4177 72.1227 65.3185 72.059 65.2345 71.978C65.1504 71.8971 65.0831 71.8003 65.0365 71.6933C64.9898 71.5863 64.9647 71.4712 64.9625 71.3545H62.5542V73.7628H62.5961C62.8318 73.7628 63.0578 73.8564 63.2245 74.0231C63.3911 74.1897 63.4848 74.4158 63.4848 74.6515C63.4848 74.8872 63.3911 75.1132 63.2245 75.2799C63.0578 75.4465 62.8318 75.5401 62.5961 75.5401Z" fill="#ADB5BD"/>
<path d="M65.2952 59.1315C65.1785 59.1317 65.063 59.1088 64.9552 59.0642C64.8474 59.0196 64.7495 58.9541 64.6671 58.8715L63.2461 57.4521C63.1636 57.3696 63.0982 57.2716 63.0535 57.1638C63.0088 57.056 62.9858 56.9404 62.9858 56.8237C62.9858 56.707 63.0088 56.5915 63.0535 56.4836C63.0982 56.3758 63.1636 56.2778 63.2461 56.1953C63.3287 56.1128 63.4266 56.0473 63.5345 56.0027C63.6423 55.958 63.7579 55.935 63.8746 55.935C63.9913 55.935 64.1068 55.958 64.2147 56.0027C64.3225 56.0473 64.4204 56.1128 64.503 56.1953L65.2953 56.9869L67.8978 54.3843C67.9804 54.3018 68.0783 54.2363 68.1861 54.1917C68.294 54.147 68.4095 54.124 68.5262 54.124C68.643 54.124 68.7585 54.147 68.8663 54.1917C68.9742 54.2363 69.0721 54.3018 69.1547 54.3843C69.2372 54.4668 69.3027 54.5648 69.3473 54.6726C69.392 54.7805 69.415 54.896 69.415 55.0127C69.415 55.1294 69.392 55.245 69.3473 55.3528C69.3027 55.4607 69.2372 55.5586 69.1547 55.6412L65.9237 58.8721C65.8412 58.9546 65.7432 59.02 65.6353 59.0645C65.5274 59.109 65.4118 59.1318 65.2952 59.1315Z" fill="#2561A1"/>
<path d="M65.2952 75.5402C65.1785 75.5404 65.063 75.5175 64.9552 75.4729C64.8474 75.4282 64.7495 75.3628 64.6671 75.2802L63.2461 73.8608C63.1636 73.7783 63.0982 73.6803 63.0535 73.5725C63.0088 73.4647 62.9858 73.3491 62.9858 73.2324C62.9858 73.1157 63.0088 73.0001 63.0535 72.8923C63.0982 72.7845 63.1636 72.6865 63.2461 72.604C63.3287 72.5215 63.4266 72.456 63.5345 72.4114C63.6423 72.3667 63.7579 72.3437 63.8746 72.3437C63.9913 72.3437 64.1068 72.3667 64.2147 72.4114C64.3225 72.456 64.4204 72.5215 64.503 72.604L65.2953 73.3956L67.8978 70.793C67.9804 70.7105 68.0783 70.645 68.1861 70.6004C68.294 70.5557 68.4095 70.5327 68.5262 70.5327C68.643 70.5327 68.7585 70.5557 68.8663 70.6004C68.9742 70.645 69.0721 70.7105 69.1547 70.793C69.2372 70.8755 69.3027 70.9735 69.3473 71.0813C69.392 71.1892 69.415 71.3047 69.415 71.4214C69.415 71.5381 69.392 71.6537 69.3473 71.7615C69.3027 71.8694 69.2372 71.9673 69.1547 72.0499L65.9237 75.2808C65.8412 75.3633 65.7432 75.4287 65.6353 75.4732C65.5274 75.5177 65.4118 75.5405 65.2952 75.5402Z" fill="#2561A1"/>
<path d="M76.3587 56.8477H72.1218C71.9429 56.8477 71.7713 56.7875 71.6448 56.6803C71.5183 56.5732 71.4473 56.4279 71.4473 56.2764C71.4473 56.1249 71.5183 55.9795 71.6448 55.8724C71.7713 55.7653 71.9429 55.7051 72.1218 55.7051H76.3587C76.5376 55.7051 76.7091 55.7653 76.8356 55.8724C76.9621 55.9795 77.0332 56.1249 77.0332 56.2764C77.0332 56.4279 76.9621 56.5732 76.8356 56.6803C76.7091 56.7875 76.5376 56.8477 76.3587 56.8477Z" fill="#ADB5BD"/>
<path d="M76.3587 64.9727H72.1218C71.9429 64.9727 71.7713 64.9125 71.6448 64.8053C71.5183 64.6982 71.4473 64.5529 71.4473 64.4014C71.4473 64.2499 71.5183 64.1045 71.6448 63.9974C71.7713 63.8903 71.9429 63.8301 72.1218 63.8301H76.3587C76.5376 63.8301 76.7091 63.8903 76.8356 63.9974C76.9621 64.1045 77.0332 64.2499 77.0332 64.4014C77.0332 64.5529 76.9621 64.6982 76.8356 64.8053C76.7091 64.9125 76.5376 64.9727 76.3587 64.9727Z" fill="#ADB5BD"/>
<path d="M76.3587 73.0977H72.1218C71.9429 73.0977 71.7713 73.0375 71.6448 72.9303C71.5183 72.8232 71.4473 72.6779 71.4473 72.5264C71.4473 72.3749 71.5183 72.2295 71.6448 72.1224C71.7713 72.0153 71.9429 71.9551 72.1218 71.9551H76.3587C76.5376 71.9551 76.7091 72.0153 76.8356 72.1224C76.9621 72.2295 77.0332 72.3749 77.0332 72.5264C77.0332 72.6779 76.9621 72.8232 76.8356 72.9303C76.7091 73.0375 76.5376 73.0977 76.3587 73.0977Z" fill="#ADB5BD"/>
</svg>
