<svg width="100" height="100" viewBox="0 0 100 100" fill="none" xmlns="http://www.w3.org/2000/svg">
<circle cx="50" cy="50" r="50" fill="#F8F9FA"/>
<path fill-rule="evenodd" clip-rule="evenodd" d="M65 31.25C65 30.2553 64.6053 29.3019 63.9013 28.5987C63.1981 27.8947 62.2447 27.5 61.25 27.5C53.4059 27.5 35.3441 27.5 27.5 27.5C26.5053 27.5 25.5519 27.8947 24.8487 28.5987C24.1447 29.3019 23.75 30.2553 23.75 31.25V72.5C23.75 73.4947 24.1447 74.4481 24.8487 75.1513C25.5519 75.8553 26.5053 76.25 27.5 76.25H61.25C62.2447 76.25 63.1981 75.8553 63.9013 75.1513C64.6053 74.4481 65 73.4947 65 72.5C65 63.4194 65 40.3306 65 31.25Z" fill="#F0F0F0"/>
<path d="M65 76.25C71.2132 76.25 76.25 71.2132 76.25 65C76.25 58.7868 71.2132 53.75 65 53.75C58.7868 53.75 53.75 58.7868 53.75 65C53.75 71.2132 58.7868 76.25 65 76.25Z" fill="#FF7B6C"/>
<path d="M65 72.5C69.1421 72.5 72.5 69.1421 72.5 65C72.5 60.8579 69.1421 57.5 65 57.5C60.8579 57.5 57.5 60.8579 57.5 65C57.5 69.1421 60.8579 72.5 65 72.5Z" fill="#F0F0F0"/>
<path fill-rule="evenodd" clip-rule="evenodd" d="M64.0625 61.25V65C64.0625 65.5175 64.4825 65.9375 65 65.9375H68.75C69.2675 65.9375 69.6875 65.5175 69.6875 65C69.6875 64.4825 69.2675 64.0625 68.75 64.0625H65.9375V61.25C65.9375 60.7325 65.5175 60.3125 65 60.3125C64.4825 60.3125 64.0625 60.7325 64.0625 61.25Z" fill="#FF7B6C"/>
<path fill-rule="evenodd" clip-rule="evenodd" d="M65 31.25C65 30.2553 64.6053 29.3019 63.9013 28.5987C63.1981 27.8947 62.2447 27.5 61.25 27.5C53.4059 27.5 35.3441 27.5 27.5 27.5C26.5053 27.5 25.5519 27.8947 24.8487 28.5987C24.1447 29.3019 23.75 30.2553 23.75 31.25V35H65V31.25Z" fill="#FF7B6C"/>
<path fill-rule="evenodd" clip-rule="evenodd" d="M38.75 25.625C38.75 24.5891 37.9109 23.75 36.875 23.75C35.8391 23.75 35 24.5891 35 25.625V29.375C35 30.4109 35.8391 31.25 36.875 31.25C37.9109 31.25 38.75 30.4109 38.75 29.375C38.75 28.2294 38.75 26.7706 38.75 25.625Z" fill="#FFCE4B"/>
<path fill-rule="evenodd" clip-rule="evenodd" d="M46.25 25.625C46.25 24.5891 45.4109 23.75 44.375 23.75C43.3391 23.75 42.5 24.5891 42.5 25.625V29.375C42.5 30.4109 43.3391 31.25 44.375 31.25C45.4109 31.25 46.25 30.4109 46.25 29.375C46.25 28.2294 46.25 26.7706 46.25 25.625Z" fill="#FFCE4B"/>
<path fill-rule="evenodd" clip-rule="evenodd" d="M53.75 25.625C53.75 24.5891 52.9109 23.75 51.875 23.75C50.8391 23.75 50 24.5891 50 25.625V29.375C50 30.4109 50.8391 31.25 51.875 31.25C52.9109 31.25 53.75 30.4109 53.75 29.375C53.75 28.2294 53.75 26.7706 53.75 25.625Z" fill="#FFCE4B"/>
<path d="M33.125 46.25C34.1605 46.25 35 45.4105 35 44.375C35 43.3395 34.1605 42.5 33.125 42.5C32.0895 42.5 31.25 43.3395 31.25 44.375C31.25 45.4105 32.0895 46.25 33.125 46.25Z" fill="#C0C0C0"/>
<path d="M33.125 53.75C34.1605 53.75 35 52.9105 35 51.875C35 50.8395 34.1605 50 33.125 50C32.0895 50 31.25 50.8395 31.25 51.875C31.25 52.9105 32.0895 53.75 33.125 53.75Z" fill="#FF7B6C"/>
<path d="M33.125 61.25C34.1605 61.25 35 60.4105 35 59.375C35 58.3395 34.1605 57.5 33.125 57.5C32.0895 57.5 31.25 58.3395 31.25 59.375C31.25 60.4105 32.0895 61.25 33.125 61.25Z" fill="#C0C0C0"/>
<path d="M33.125 68.75C34.1605 68.75 35 67.9105 35 66.875C35 65.8395 34.1605 65 33.125 65C32.0895 65 31.25 65.8395 31.25 66.875C31.25 67.9105 32.0895 68.75 33.125 68.75Z" fill="#C0C0C0"/>
<path d="M40.625 46.25C41.6605 46.25 42.5 45.4105 42.5 44.375C42.5 43.3395 41.6605 42.5 40.625 42.5C39.5895 42.5 38.75 43.3395 38.75 44.375C38.75 45.4105 39.5895 46.25 40.625 46.25Z" fill="#C0C0C0"/>
<path d="M40.625 53.75C41.6605 53.75 42.5 52.9105 42.5 51.875C42.5 50.8395 41.6605 50 40.625 50C39.5895 50 38.75 50.8395 38.75 51.875C38.75 52.9105 39.5895 53.75 40.625 53.75Z" fill="#C0C0C0"/>
<path d="M40.625 61.25C41.6605 61.25 42.5 60.4105 42.5 59.375C42.5 58.3395 41.6605 57.5 40.625 57.5C39.5895 57.5 38.75 58.3395 38.75 59.375C38.75 60.4105 39.5895 61.25 40.625 61.25Z" fill="#C0C0C0"/>
<path d="M40.625 68.75C41.6605 68.75 42.5 67.9105 42.5 66.875C42.5 65.8395 41.6605 65 40.625 65C39.5895 65 38.75 65.8395 38.75 66.875C38.75 67.9105 39.5895 68.75 40.625 68.75Z" fill="#C0C0C0"/>
<path d="M48.125 46.25C49.1605 46.25 50 45.4105 50 44.375C50 43.3395 49.1605 42.5 48.125 42.5C47.0895 42.5 46.25 43.3395 46.25 44.375C46.25 45.4105 47.0895 46.25 48.125 46.25Z" fill="#C0C0C0"/>
<path d="M48.125 53.75C49.1605 53.75 50 52.9105 50 51.875C50 50.8395 49.1605 50 48.125 50C47.0895 50 46.25 50.8395 46.25 51.875C46.25 52.9105 47.0895 53.75 48.125 53.75Z" fill="#C0C0C0"/>
<path d="M48.125 61.25C49.1605 61.25 50 60.4105 50 59.375C50 58.3395 49.1605 57.5 48.125 57.5C47.0895 57.5 46.25 58.3395 46.25 59.375C46.25 60.4105 47.0895 61.25 48.125 61.25Z" fill="#C0C0C0"/>
<path d="M48.125 68.75C49.1605 68.75 50 67.9105 50 66.875C50 65.8395 49.1605 65 48.125 65C47.0895 65 46.25 65.8395 46.25 66.875C46.25 67.9105 47.0895 68.75 48.125 68.75Z" fill="#FF7B6C"/>
<path d="M55.625 46.25C56.6605 46.25 57.5 45.4105 57.5 44.375C57.5 43.3395 56.6605 42.5 55.625 42.5C54.5895 42.5 53.75 43.3395 53.75 44.375C53.75 45.4105 54.5895 46.25 55.625 46.25Z" fill="#C0C0C0"/>
<path d="M55.625 53.75C56.6605 53.75 57.5 52.9105 57.5 51.875C57.5 50.8395 56.6605 50 55.625 50C54.5895 50 53.75 50.8395 53.75 51.875C53.75 52.9105 54.5895 53.75 55.625 53.75Z" fill="#C0C0C0"/>
</svg>
