<svg width="86" height="86" viewBox="0 0 86 86" fill="none" xmlns="http://www.w3.org/2000/svg">
<circle cx="43" cy="43" r="43" fill="#F8F9FA"/>
<g clip-path="url(#clip0_207_921)">
<path d="M63.9278 35.9882L59.3868 18.1171L55.9005 21.574C52.0332 19.2302 47.541 18 43 18C29.6405 18 18.6443 28.5568 18.0587 41.8869L18 43.1171L26.8184 45.0214L26.7891 43.2052C26.7009 34.1522 34.0938 26.7891 43 26.7891C45.1973 26.7891 47.4041 27.2285 49.4259 28.078L46.0567 31.4472L63.9278 35.9882Z" fill="#64E1DC"/>
<path d="M59.211 41.1836V43.0002C59.211 51.9651 51.7597 59.2111 43 59.2111C40.8322 59.2111 38.6936 58.7716 36.7012 57.9221L39.9532 54.6994L21.9845 50.0997L26.5839 67.9708L30.0995 64.4552C33.9668 66.7695 38.4884 68.0002 43 68.0002C56.3301 68.0002 67.3264 57.5021 67.9413 44.2014L68 42.9708C67.4141 42.8537 59.504 41.2423 59.211 41.1836Z" fill="#64E1DC"/>
<path d="M49.4259 28.078C47.4041 27.2285 45.1973 26.7891 43 26.7891V18C47.541 18 52.0332 19.2302 55.9005 21.574L59.3868 18.1171L63.9278 35.9882L46.0567 31.4472L49.4259 28.078Z" fill="#00C8C8"/>
<path d="M68 42.9708L67.9413 44.2014C67.3263 57.5021 56.3301 68.0002 43 68.0002V59.2111C51.7597 59.2111 59.2109 51.9651 59.2109 43.0002V41.1836C59.5039 41.2423 67.4141 42.8537 68 42.9708Z" fill="#00C8C8"/>
</g>
<defs>
<clipPath id="clip0_207_921">
<rect width="50" height="50" fill="white" transform="translate(18 18)"/>
</clipPath>
</defs>
</svg>
