<svg width="100" height="101" viewBox="0 0 100 101" fill="none" xmlns="http://www.w3.org/2000/svg">
<circle cx="50" cy="50.5" r="50" fill="#F8F9FA"/>
<g clip-path="url(#clip0_207_854)">
<path d="M73.6621 38.6035C73.6621 38.6035 75.4 45.8449 75.4 51.0173V70.6725C71.8549 72.6245 68.0086 73.6811 64.1035 73.7759C60.8949 73.8526 57.6891 73.5057 54.5448 72.7414L53.1719 67.0311H47.2281L45.8552 72.7414C42.7109 73.5057 39.5051 73.8526 36.2966 73.7759C32.3914 73.6811 28.5451 72.6245 25 70.6725V51.0173C25 45.8449 26.7379 38.6035 26.7379 38.6035H73.6621Z" fill="#E64C3C"/>
<path d="M50.2 68.6035C45.9997 68.8831 42.2802 65.4001 41.5191 60.4745C41.475 60.1086 41.5982 59.7425 41.8424 59.5141C42.0865 59.2857 42.4144 59.2297 42.7026 59.3672C42.9908 59.5047 43.1955 59.8148 43.2396 60.1807C43.2718 60.431 44.1173 66.5345 50.2 66.5345C56.2828 66.5345 57.1283 60.431 57.1613 60.1776C57.2374 59.6205 57.6746 59.2389 58.1437 59.3199C58.6129 59.4009 58.9409 59.9147 58.881 60.4745C58.1199 65.4001 54.4004 68.8831 50.2 68.6035Z" fill="#C03A2B"/>
<path d="M41.5104 56.1896C41.0862 56.1889 40.7244 55.8238 40.6545 55.3258C40.1482 51.3644 39.8594 47.368 39.7898 43.362C39.7776 42.7907 40.1567 42.3157 40.6366 42.3011C41.1166 42.2866 41.5155 42.7379 41.5278 43.3092C41.5943 47.2202 41.8747 51.1219 42.3672 54.9896C42.4051 55.2602 42.3512 55.5378 42.2172 55.7611C42.0833 55.9844 41.8803 56.1352 41.6529 56.1803C41.6057 56.1884 41.558 56.1915 41.5104 56.1896Z" fill="#C03A2B"/>
<path d="M58.8898 56.1895C58.8417 56.1898 58.7937 56.1849 58.7464 56.175C58.519 56.1299 58.316 55.9791 58.1821 55.7558C58.0481 55.5325 57.9942 55.255 58.0321 54.9843C58.5258 51.1188 58.8033 47.2185 58.8629 43.3091C58.8888 42.7467 59.2761 42.3042 59.7492 42.2964C59.9797 42.3018 60.1989 42.4161 60.3586 42.614C60.5183 42.8118 60.6054 43.0772 60.6008 43.3516C60.5385 47.3611 60.2529 51.3612 59.7457 55.3257C59.6757 55.8237 59.3139 56.1888 58.8898 56.1895Z" fill="#C03A2B"/>
<path d="M26.738 32.3965V38.6034C26.738 41.4596 37.2421 43.7758 50.2001 43.7758C63.1581 43.7758 73.6622 41.4596 73.6622 38.6034V32.3965H26.738Z" fill="#3F5C6C"/>
<path d="M50.2001 37.5691C60.5663 37.5691 68.9697 36.6428 68.9697 35.5001C68.9697 34.3575 60.5663 33.4312 50.2001 33.4312C39.8339 33.4312 31.4304 34.3575 31.4304 35.5001C31.4304 36.6428 39.8339 37.5691 50.2001 37.5691Z" fill="#2C3E50"/>
<path d="M73.6622 32.3965C73.6622 33.5655 71.9156 34.631 68.9698 35.5C64.6858 34.2483 57.8731 33.431 50.2001 33.431C42.5271 33.431 35.7145 34.2483 31.4305 35.5C28.4847 34.631 26.738 33.5655 26.738 32.3965C26.738 29.5414 37.2438 27.2241 50.2001 27.2241C63.1564 27.2241 73.6622 29.5414 73.6622 32.3965Z" fill="#35495E"/>
</g>
<defs>
<clipPath id="clip0_207_854">
<rect width="50.4" height="60" fill="white" transform="translate(25 20.5)"/>
</clipPath>
</defs>
</svg>
