<svg width="300" height="148" viewBox="0 0 300 148" fill="none" xmlns="http://www.w3.org/2000/svg">
<circle cx="296.5" cy="144.5" r="3.5" fill="#5409E8"/>
<path fill-rule="evenodd" clip-rule="evenodd" d="M0.892904 27.521C0.930566 27.5031 1.18368 27.3895 1.38525 27.2719C2.22389 26.7892 3.61414 25.8103 5.29493 24.4715C10.9278 19.9739 19.803 11.4314 21.8243 3.53948C21.941 3.08423 22.4046 2.81086 22.8599 2.92755C23.3151 3.04424 23.591 3.50613 23.4743 3.96138C21.3712 12.1729 12.2174 21.1228 6.35537 25.801C5.56978 26.427 4.8438 26.9799 4.20198 27.4421C6.61622 27.3432 9.02301 27.1823 11.4343 26.9938C18.3755 26.4487 24.4933 27.415 31.0583 29.8861C31.4972 30.0502 31.7202 30.5426 31.554 30.9812C31.39 31.4202 30.8975 31.6432 30.4589 31.477C24.1397 29.0998 18.2495 28.1657 11.5682 28.6896C8.4172 28.9352 5.2694 29.1336 2.11001 29.2149C1.79559 29.223 0.978259 29.2351 0.863461 29.2188C0.208587 29.1266 0.132708 28.5708 0.122119 28.4473C0.116483 28.3877 0.0903224 27.6442 0.892904 27.521ZM1.21132 29.1921C1.1891 29.1951 1.16652 29.2002 1.14219 29.2028C1.16195 29.2016 1.18452 29.1965 1.21132 29.1921Z" fill="#ADB5BD"/>
<path d="M286 139.092C265.5 88.0918 95.5 -10.9082 1 26.0918" stroke="#ADB5BD" stroke-width="2" stroke-linecap="round"/>
</svg>
