<svg width="123" height="135" viewBox="0 0 123 135" fill="none" xmlns="http://www.w3.org/2000/svg">
<path d="M7.15973 134.049C4.22567 134.835 1.20982 133.094 0.423636 130.16C-0.362544 127.226 1.37866 124.21 4.31272 123.424C7.24679 122.638 10.2626 124.379 11.0488 127.313C11.835 130.247 10.0938 133.263 7.15973 134.049Z" fill="#5409E8"/>
<path fill-rule="evenodd" clip-rule="evenodd" d="M121.395 11.3076C121.353 11.3101 121.077 11.3322 120.843 11.3261C119.876 11.3064 118.186 11.117 116.069 10.7518C108.967 9.51865 97.0764 6.29906 91.5079 0.352667C91.1866 0.0096893 90.6486 -0.00693937 90.3056 0.314364C89.9626 0.635667 89.943 1.17329 90.2643 1.51627C96.0583 7.70343 108.389 11.1462 115.778 12.4275C116.768 12.5984 117.671 12.7339 118.456 12.8303C116.292 13.905 114.104 14.9218 111.9 15.9165C105.552 18.7778 100.654 22.5679 96.0869 27.8925C95.7811 28.2475 95.8225 28.7865 96.1791 29.0911C96.5341 29.397 97.0732 29.3556 97.3777 28.9989C101.774 23.8749 106.489 20.2224 112.598 17.4676C115.479 16.1671 118.334 14.8267 121.143 13.3781C121.422 13.234 122.145 12.8514 122.237 12.7819C122.767 12.386 122.566 11.8622 122.516 11.7489C122.492 11.6939 122.158 11.0295 121.395 11.3076ZM121.92 12.9259C121.94 12.9178 121.963 12.9114 121.985 12.9019C121.967 12.9104 121.945 12.9168 121.92 12.9259Z" fill="#ADB5BD"/>
<path fill-rule="evenodd" clip-rule="evenodd" d="M9.57625 106.484C9.22381 90.5985 15.5224 75.8653 25.2794 63.0376C40.0149 43.6658 62.6381 28.6329 82.4422 20.5332C94.8883 15.4412 105.144 16.2318 118.417 14.0048C118.955 13.9143 119.303 13.4013 119.195 12.8585C119.089 12.3175 118.564 11.9486 118.028 12.041C104.599 14.2939 94.2327 13.5343 81.6405 18.6849C61.5606 26.8978 38.6306 42.1534 23.6875 61.7963C13.6611 74.9774 7.23045 90.1364 7.59215 106.462C7.60415 107.012 8.0564 107.463 8.60429 107.469C9.15217 107.475 9.58825 107.034 9.57625 106.484Z" fill="#ADB5BD"/>
</svg>
