<svg width="99" height="55" viewBox="0 0 99 55" fill="none" xmlns="http://www.w3.org/2000/svg">
<path fill-rule="evenodd" clip-rule="evenodd" d="M90.8687 45.0322C86.9595 35.3893 79.4083 28.2583 70.3019 23.2185C56.5492 15.6076 39.2477 12.7618 25.4139 13.3113C16.7194 13.6557 10.8477 16.9359 2.40577 19.2282C2.06383 19.3209 1.7244 19.1079 1.64772 18.7521C1.57052 18.398 1.7858 18.0327 2.12721 17.9417C10.6679 15.6225 16.6135 12.3304 25.4097 11.9814C39.4364 11.4244 56.9774 14.3202 70.9233 22.037C80.281 27.2157 88.0208 34.5664 92.0385 44.476C92.1739 44.8099 92.0228 45.2044 91.6998 45.3581C91.3768 45.5117 91.0041 45.366 90.8687 45.0322Z" fill="#ADB5BD"/>
<path fill-rule="evenodd" clip-rule="evenodd" d="M1.0633 17.6876C1.0932 17.6777 1.29333 17.6159 1.45606 17.5457C2.13233 17.2587 3.27559 16.6444 4.67708 15.7814C9.37529 12.8808 16.9586 7.18193 19.4243 1.27536C19.5666 0.934643 19.9412 0.770931 20.2613 0.908658C20.5814 1.04639 20.7267 1.43302 20.5844 1.77374C18.0189 7.91945 10.1803 13.9051 5.29126 16.922C4.63619 17.3255 4.034 17.6786 3.50493 17.9701C5.29141 18.1443 7.08013 18.2696 8.87555 18.374C14.0444 18.6725 18.4202 20.0569 22.9379 22.6541C23.2401 22.8269 23.3428 23.2317 23.1662 23.5544C22.9911 23.8775 22.6015 23.9992 22.2998 23.8248C17.9511 21.326 13.7385 19.9902 8.76339 19.7022C6.4172 19.5653 4.07926 19.392 1.74736 19.1268C1.51528 19.1005 0.913133 19.025 0.830791 19.0004C0.360987 18.8609 0.374254 18.4222 0.381808 18.3254C0.385071 18.2787 0.458192 17.6997 1.0633 17.6876ZM1.08974 19.0159C1.07305 19.0159 1.05582 19.0175 1.03761 19.0169C1.05228 19.0181 1.0695 19.0165 1.08974 19.0159Z" fill="#ADB5BD"/>
<path d="M95.9307 54.7571C93.7982 55.3286 91.6062 54.063 91.0348 51.9305C90.4634 49.798 91.7289 47.606 93.8614 47.0346C95.994 46.4632 98.1859 47.7287 98.7574 49.8612C99.3288 51.9938 98.0632 54.1857 95.9307 54.7571Z" fill="#5409E8"/>
</svg>
