<svg width="81" height="88" viewBox="0 0 81 88" fill="none" xmlns="http://www.w3.org/2000/svg">
<path d="M4.76239 87.6712C2.84408 88.1852 0.872294 87.0468 0.358284 85.1284C-0.155725 83.2101 0.982685 81.2383 2.901 80.7243C4.81931 80.2103 6.79109 81.3487 7.3051 83.267C7.81911 85.1854 6.6807 87.1571 4.76239 87.6712Z" fill="#5409E8"/>
<path fill-rule="evenodd" clip-rule="evenodd" d="M79.45 7.42207C79.4228 7.42368 79.242 7.43816 79.0895 7.43413C78.457 7.42124 77.3522 7.29742 75.9677 7.0587C71.3244 6.25243 63.5505 4.14745 59.9098 0.259651C59.6997 0.0354098 59.348 0.0245378 59.1237 0.234608C58.8995 0.444679 58.8867 0.796182 59.0967 1.02042C62.8849 5.06563 70.9467 7.31653 75.778 8.15426C76.4252 8.266 77.0152 8.35458 77.5285 8.4176C76.1136 9.12026 74.6835 9.78504 73.2421 10.4354C69.092 12.3061 65.8893 14.7841 62.9036 18.2654C62.7036 18.4975 62.7307 18.8499 62.9639 19.049C63.196 19.249 63.5484 19.2219 63.7475 18.9887C66.6219 15.6386 69.7043 13.2506 73.6986 11.4495C75.582 10.5992 77.4487 9.7229 79.2852 8.77578C79.4679 8.68156 79.9402 8.43141 80.0009 8.38597C80.3472 8.12712 80.2159 7.78468 80.1832 7.71058C80.1676 7.67464 79.9488 7.24024 79.45 7.42207ZM79.7931 8.48009C79.8068 8.4748 79.8213 8.47061 79.8361 8.46445C79.8244 8.47 79.8099 8.47418 79.7931 8.48009Z" fill="#ADB5BD"/>
<path fill-rule="evenodd" clip-rule="evenodd" d="M6.34232 69.6493C6.1119 59.263 10.2299 49.6303 16.6091 41.2435C26.2433 28.578 41.0345 18.7495 53.9826 13.4538C62.1199 10.1247 68.8251 10.6415 77.5032 9.18548C77.8547 9.12634 78.0825 8.79094 78.0118 8.43602C77.9423 8.08235 77.5992 7.84115 77.2489 7.90153C68.4692 9.37454 61.6913 8.87791 53.4584 12.2454C40.33 17.615 25.3383 27.5893 15.5683 40.4319C9.01304 49.0498 4.80863 58.9609 5.04511 69.6347C5.05295 69.9943 5.34864 70.289 5.70685 70.2931C6.06506 70.2972 6.35017 70.009 6.34232 69.6493Z" fill="#ADB5BD"/>
</svg>
