<svg width="129" height="77" viewBox="0 0 129 77" fill="none" xmlns="http://www.w3.org/2000/svg">
<path d="M121.083 73.1943C121.655 75.327 123.847 76.5927 125.98 76.0212C128.113 75.4498 129.378 73.2576 128.807 71.1248C128.235 68.9921 126.043 67.7265 123.91 68.2979C121.778 68.8694 120.512 71.0616 121.083 73.1943Z" fill="#5409E8"/>
<path fill-rule="evenodd" clip-rule="evenodd" d="M120.119 65.266C114.844 54.7573 104.85 45.665 92.8585 38.1703C74.7487 26.8521 52.0805 19.173 34.0037 15.7869C22.6425 13.6578 15.0219 15.191 4.02416 15.0325C3.57871 15.0259 3.13131 14.7221 3.02499 14.3535C2.91803 13.9863 3.19324 13.6913 3.63805 13.6993C14.7645 13.8597 22.4816 12.3359 33.9756 14.4892C52.3043 17.9227 75.2865 25.7184 93.6508 37.1947C105.973 44.8959 116.217 54.256 121.639 65.0554C121.822 65.4193 121.631 65.7611 121.211 65.8193C120.792 65.8775 120.302 65.6298 120.119 65.266Z" fill="#ADB5BD"/>
<path fill-rule="evenodd" clip-rule="evenodd" d="M1.67035 13.5338C1.70018 13.5284 1.89941 13.4971 2.06325 13.4532C2.74366 13.275 3.90578 12.8543 5.34045 12.2368C10.1506 10.1595 18.0079 5.86541 20.9342 0.717248C21.103 0.420291 21.4804 0.317211 21.7774 0.486078C22.0743 0.654945 22.1795 1.0316 22.0106 1.32856C18.9659 6.68516 10.8353 11.2117 5.82997 13.3718C5.15937 13.6607 4.54453 13.9096 4.00608 14.111C5.71807 14.5032 7.4367 14.8505 9.16373 15.1793C14.1358 16.124 18.2414 17.9713 22.373 20.9593C22.6495 21.1583 22.7117 21.5463 22.5113 21.8221C22.3124 22.0986 21.9244 22.1608 21.6486 21.9604C17.6714 19.0852 13.7192 17.3041 8.9335 16.3941C6.67673 15.964 4.43126 15.5014 2.20006 14.9544C1.978 14.9 1.40251 14.7522 1.32511 14.7188C0.883492 14.5289 0.936531 14.1246 0.952709 14.036C0.960154 13.9931 1.08395 13.4667 1.67035 13.5338ZM1.57417 14.7666C1.55802 14.7644 1.54122 14.7637 1.52365 14.7609C1.53773 14.7638 1.55453 14.7646 1.57417 14.7666Z" fill="#ADB5BD"/>
</svg>
