<svg width="100" height="93" viewBox="0 0 100 93" fill="none" xmlns="http://www.w3.org/2000/svg">
<path d="M7.34995 88.6253C7.34995 90.655 5.70461 92.3003 3.67497 92.3003C1.64534 92.3003 0 90.655 0 88.6253C0 86.5957 1.64534 84.9504 3.67497 84.9504C5.70461 84.9504 7.34995 86.5957 7.34995 88.6253Z" fill="#5409E8"/>
<path fill-rule="evenodd" clip-rule="evenodd" d="M6.31996 81.3563C8.5037 70.7705 15.2142 60.3196 24.0784 50.812C37.4655 36.4539 55.7659 24.2425 71.0108 16.9352C80.592 12.3418 87.7232 11.89 97.4505 9.13273C97.8444 9.0209 98.1694 8.64467 98.1761 8.29211C98.1837 7.94067 97.8692 7.74421 97.4761 7.85715C87.635 10.6466 80.4204 11.1297 70.727 15.7763C55.2696 23.1855 36.7182 35.5752 23.1428 50.1343C14.0339 59.9039 7.16485 70.6521 4.92034 81.5309C4.84458 81.8975 5.09536 82.1555 5.48184 82.1074C5.86832 82.0592 6.24421 81.7228 6.31996 81.3563Z" fill="#ADB5BD"/>
<path fill-rule="evenodd" clip-rule="evenodd" d="M99.1839 7.24199C99.1561 7.24436 98.9718 7.26397 98.8158 7.26392C98.1693 7.2676 97.0374 7.17054 95.6166 6.96354C90.8514 6.26353 82.8532 4.32013 79.0301 0.445229C78.8095 0.221733 78.4499 0.219997 78.2264 0.440586C78.0029 0.661175 77.9992 1.02062 78.2197 1.24412C82.1976 5.27591 90.4937 7.36071 95.452 8.08785C96.1161 8.18477 96.7213 8.25954 97.2473 8.31025C95.8205 9.06581 94.3771 9.78307 92.9219 10.4859C88.7319 12.5077 85.526 15.1246 82.5684 18.7607C82.3703 19.0032 82.4073 19.3625 82.6509 19.5597C82.8933 19.7578 83.2526 19.7208 83.4498 19.4772C86.2971 15.9781 89.3826 13.4563 93.4154 11.5098C95.3169 10.5909 97.2005 9.64591 99.0515 8.62937C99.2357 8.52825 99.7116 8.26011 99.7723 8.21207C100.119 7.93839 99.976 7.59204 99.9406 7.51721C99.9237 7.48091 99.6886 7.04294 99.1839 7.24199ZM99.5626 8.31376C99.5764 8.30798 99.5911 8.30332 99.6061 8.29664C99.5943 8.30261 99.5795 8.30727 99.5626 8.31376Z" fill="#ADB5BD"/>
</svg>
