<svg width="150" height="138" viewBox="0 0 150 138" fill="none" xmlns="http://www.w3.org/2000/svg">
<path d="M11 132.5C11 135.538 8.53757 138 5.5 138C2.46243 138 0 135.538 0 132.5C0 129.463 2.46243 127 5.5 127C8.53757 127 11 129.463 11 132.5Z" fill="#5409E8"/>
<path fill-rule="evenodd" clip-rule="evenodd" d="M9.45851 121.621C12.7267 105.778 22.7697 90.1376 36.036 75.9084C56.0712 54.42 83.4597 36.1442 106.275 25.2081C120.615 18.3335 131.287 17.6575 145.845 13.5309C146.435 13.3635 146.921 12.8004 146.931 12.2728C146.943 11.7468 146.472 11.4528 145.884 11.6218C131.155 15.7966 120.358 16.5195 105.851 23.4736C82.717 34.5624 54.9528 53.1049 34.6358 74.8942C21.0033 89.5155 10.723 105.601 7.36382 121.883C7.25045 122.431 7.62577 122.817 8.20417 122.745C8.78258 122.673 9.34514 122.17 9.45851 121.621Z" fill="#ADB5BD"/>
<path fill-rule="evenodd" clip-rule="evenodd" d="M148.439 10.7012C148.398 10.7047 148.122 10.7341 147.889 10.734C146.921 10.7395 145.227 10.5942 143.101 10.2844C135.969 9.23681 123.999 6.32829 118.277 0.529087C117.947 0.194602 117.409 0.192003 117.074 0.522139C116.74 0.852274 116.734 1.39023 117.064 1.72471C123.018 7.75872 135.434 10.8789 142.854 11.9671C143.848 12.1121 144.754 12.2241 145.541 12.2999C143.406 13.4307 141.246 14.5042 139.068 15.556C132.797 18.5818 127.999 22.4984 123.573 27.9402C123.276 28.303 123.332 28.8408 123.696 29.136C124.059 29.4325 124.597 29.3771 124.892 29.0125C129.153 23.7757 133.771 20.0016 139.806 17.0884C142.652 15.7133 145.471 14.2989 148.241 12.7776C148.517 12.6262 149.229 12.2249 149.32 12.153C149.839 11.7434 149.625 11.2251 149.572 11.1131C149.547 11.0587 149.195 10.4033 148.439 10.7012ZM149.006 12.3052C149.027 12.2966 149.049 12.2896 149.071 12.2796C149.054 12.2885 149.032 12.2955 149.006 12.3052Z" fill="#ADB5BD"/>
</svg>
