<svg width="110" height="43" viewBox="0 0 110 43" fill="none" xmlns="http://www.w3.org/2000/svg">
<path fill-rule="evenodd" clip-rule="evenodd" d="M104.52 2.26945C95.2411 -0.0447432 83.7371 0.942301 71.8515 3.8225C53.9019 8.17249 35.0778 16.8393 21.6039 25.1101C13.1351 30.3078 9.11758 35.2648 1.98807 41.2409C1.6992 41.4829 1.24215 41.5783 0.967092 41.4538C0.692422 41.3304 0.702945 41.0324 0.9922 40.7915C8.2051 34.7453 12.2897 29.74 20.8572 24.4812C34.5189 16.0952 53.6095 7.31339 71.8108 2.90186C84.0242 -0.0579556 95.8388 -1.04991 105.374 1.32809C105.696 1.40813 105.766 1.68293 105.53 1.94289C105.294 2.20285 104.841 2.34948 104.52 2.26945Z" fill="#ADB5BD"/>
<path fill-rule="evenodd" clip-rule="evenodd" d="M0.177022 41.9263C0.188775 41.9088 0.269378 41.7942 0.32674 41.6905C0.567104 41.262 0.920636 40.4694 1.30902 39.4395C2.60787 35.983 4.28835 29.866 3.17645 25.7326C3.11235 25.4941 3.24359 25.2543 3.46926 25.1962C3.69492 25.1381 3.92997 25.2832 3.99407 25.5217C5.15099 29.8224 3.45277 36.1956 2.10051 39.7916C1.91906 40.2731 1.74493 40.7063 1.58429 41.0769C2.60063 40.4382 3.59817 39.7728 4.5907 39.0935C7.44726 37.137 10.3285 36.0793 13.7809 35.6051C14.0115 35.5729 14.2314 35.745 14.27 35.988C14.3096 36.2306 14.1532 36.4543 13.9223 36.4855C10.5995 36.9425 7.82447 37.9592 5.07469 39.842C3.7775 40.7294 2.4698 41.5942 1.12767 42.4078C0.994124 42.4888 0.644669 42.6952 0.591066 42.7159C0.285451 42.8343 0.113029 42.5968 0.0774284 42.5425C0.0600152 42.5164 -0.138147 42.1802 0.177022 41.9263ZM0.734384 42.6181C0.725544 42.625 0.717088 42.6328 0.707247 42.64C0.715473 42.6346 0.72393 42.6267 0.734384 42.6181Z" fill="#ADB5BD"/>
<path d="M107.687 6.22019C106.023 6.66607 104.313 5.67856 103.867 4.01453C103.421 2.3505 104.409 0.64008 106.073 0.194204C107.737 -0.251672 109.447 0.735838 109.893 2.39987C110.339 4.0639 109.351 5.77432 107.687 6.22019Z" fill="#5409E8"/>
</svg>
