<svg width="142" height="56" viewBox="0 0 142 56" fill="none" xmlns="http://www.w3.org/2000/svg">
<path fill-rule="evenodd" clip-rule="evenodd" d="M134.871 3.69404C122.98 0.728304 108.237 1.99325 93.0054 5.68435C70.0022 11.2591 45.8783 22.3659 28.6109 32.9654C17.7578 39.6264 12.6091 45.979 3.47236 53.6377C3.10216 53.9478 2.51643 54.0701 2.16393 53.9105C1.81193 53.7524 1.82542 53.3704 2.19611 53.0617C11.4398 45.3133 16.6743 38.8987 27.6539 32.1593C45.1621 21.4123 69.6275 10.1581 92.9533 4.5045C108.605 0.711372 123.746 -0.559863 135.967 2.48765C136.378 2.59022 136.468 2.9424 136.165 3.27554C135.863 3.60869 135.283 3.79661 134.871 3.69404Z" fill="#ADB5BD"/>
<path fill-rule="evenodd" clip-rule="evenodd" d="M1.15142 54.516C1.16648 54.4936 1.26978 54.3468 1.34329 54.2139C1.65133 53.6648 2.1044 52.6489 2.60212 51.3291C4.26667 46.8995 6.42026 39.0602 4.99533 33.7631C4.91318 33.4575 5.08136 33.1501 5.37056 33.0757C5.65977 33.0012 5.96099 33.1872 6.04314 33.4928C7.52578 39.0044 5.34944 47.1719 3.61646 51.7804C3.38392 52.3974 3.16077 52.9525 2.9549 53.4275C4.25738 52.609 5.53578 51.7562 6.80774 50.8857C10.4685 48.3783 14.161 47.0228 18.5854 46.4152C18.8809 46.3739 19.1628 46.5945 19.2122 46.9058C19.2629 47.2167 19.0626 47.5035 18.7666 47.5434C14.5083 48.1291 10.952 49.432 7.42801 51.845C5.76559 52.9822 4.08972 54.0904 2.36973 55.1331C2.19857 55.2369 1.75073 55.5014 1.68204 55.5279C1.29038 55.6796 1.06941 55.3753 1.02379 55.3057C1.00147 55.2723 0.747519 54.8414 1.15142 54.516ZM1.86571 55.4027C1.85438 55.4114 1.84354 55.4215 1.83093 55.4307C1.84147 55.4238 1.85231 55.4137 1.86571 55.4027Z" fill="#ADB5BD"/>
<path d="M138.931 8.7571C136.798 9.3285 134.606 8.06297 134.035 5.93044C133.463 3.79791 134.729 1.60593 136.861 1.03453C138.994 0.463116 141.186 1.72865 141.757 3.86118C142.329 5.99371 141.063 8.18569 138.931 8.7571Z" fill="#5409E8"/>
</svg>
