<svg width="135" height="68" viewBox="0 0 135 68" fill="none" xmlns="http://www.w3.org/2000/svg">
<path fill-rule="evenodd" clip-rule="evenodd" d="M10.0312 15.2542C16.293 27.8221 27.194 36.6319 39.9701 42.4664C59.2647 51.2772 82.839 53.3081 101.395 51.1311C113.057 49.7641 120.617 44.7405 131.737 40.779C132.187 40.6187 132.666 40.87 132.806 41.3407C132.947 41.8092 132.695 42.323 132.245 42.481C120.995 46.489 113.337 51.5363 101.539 52.9201C82.7242 55.1272 58.8224 53.054 39.2567 44.1206C26.1282 38.1254 14.9506 29.0396 8.51508 16.1241C8.29811 15.689 8.46045 15.1424 8.87907 14.9022C9.2977 14.6619 9.81424 14.8191 10.0312 15.2542Z" fill="#ADB5BD"/>
<path fill-rule="evenodd" clip-rule="evenodd" d="M133.703 42.7123C133.664 42.7288 133.401 42.8327 133.189 42.9441C132.309 43.4005 130.835 44.3458 129.039 45.6526C123.019 50.0436 113.408 58.4992 110.705 66.7026C110.549 67.1758 110.061 67.435 109.616 67.2829C109.172 67.1309 108.936 66.6258 109.092 66.1526C111.905 57.6171 121.829 48.749 128.094 44.1818C128.933 43.5707 129.707 43.0331 130.388 42.5859C127.967 42.5372 125.547 42.5545 123.12 42.6007C116.135 42.7361 110.104 41.3283 103.755 38.3034C103.331 38.1024 103.15 37.5683 103.355 37.1158C103.557 36.6629 104.068 36.4586 104.492 36.6619C110.603 39.5721 116.41 40.9315 123.133 40.802C126.304 40.7424 129.468 40.7325 132.633 40.8469C132.948 40.8583 133.766 40.8973 133.879 40.9218C134.526 41.0607 134.554 41.6522 134.554 41.7833C134.554 41.8466 134.516 42.6331 133.703 42.7123ZM133.529 40.9279C133.552 40.9262 133.575 40.9222 133.599 40.921C133.579 40.921 133.556 40.925 133.529 40.9279Z" fill="#ADB5BD"/>
<path d="M9.54485 1.76036C11.6721 3.92868 11.6388 7.41093 9.4705 9.53818C7.30218 11.6654 3.81993 11.6321 1.69268 9.46383C-0.434574 7.29551 -0.401282 3.81327 1.76704 1.68601C3.93535 -0.441241 7.4176 -0.407955 9.54485 1.76036Z" fill="#5409E8"/>
</svg>
