<svg width="93" height="46" viewBox="0 0 93 46" fill="none" xmlns="http://www.w3.org/2000/svg">
<path fill-rule="evenodd" clip-rule="evenodd" d="M7.70706 10.4868C11.9529 19.0086 19.3444 24.982 28.0073 28.9382C41.0902 34.9124 57.0749 36.2895 69.6568 34.8133C77.5646 33.8865 82.6902 30.4801 90.2302 27.794C90.5356 27.6854 90.8603 27.8557 90.9553 28.1749C91.0507 28.4926 90.88 28.8409 90.575 28.9481C82.9467 31.6657 77.7545 35.0881 69.7543 36.0264C56.997 37.5229 40.7903 36.1172 27.5236 30.0598C18.6217 25.9947 11.0427 19.8341 6.67904 11.0766C6.53192 10.7816 6.64199 10.411 6.92584 10.2481C7.20969 10.0852 7.55994 10.1918 7.70706 10.4868Z" fill="#ADB5BD"/>
<path fill-rule="evenodd" clip-rule="evenodd" d="M91.5635 29.1049C91.5369 29.1161 91.3587 29.1865 91.2152 29.2621C90.6184 29.5715 89.6187 30.2125 88.401 31.0986C84.3192 34.0759 77.8025 39.8093 75.9693 45.3717C75.8635 45.6925 75.5332 45.8683 75.2315 45.7652C74.9298 45.6621 74.77 45.3196 74.8758 44.9988C76.7832 39.2112 83.5126 33.1981 87.7603 30.1013C88.3295 29.687 88.8539 29.3224 89.3161 29.0192C87.674 28.9862 86.0333 28.9979 84.388 29.0292C79.6514 29.1211 75.5618 28.1665 71.2573 26.1154C70.9694 25.9791 70.8472 25.617 70.9856 25.3102C71.1226 25.0031 71.4694 24.8646 71.7569 25.0024C75.9003 26.9757 79.8376 27.8974 84.3967 27.8096C86.5468 27.7692 88.6919 27.7625 90.838 27.8401C91.0516 27.8478 91.6062 27.8743 91.6831 27.8909C92.1215 27.985 92.1403 28.3861 92.1403 28.475C92.1406 28.5179 92.1147 29.0512 91.5635 29.1049ZM91.4458 27.895C91.461 27.8938 91.4766 27.8912 91.4932 27.8903C91.4798 27.8903 91.4642 27.893 91.4458 27.895Z" fill="#ADB5BD"/>
<path d="M7.37728 1.33719C8.81968 2.80743 8.79711 5.16859 7.32687 6.61099C5.85662 8.05339 3.49546 8.03082 2.05306 6.56058C0.610664 5.09033 0.633238 2.72917 2.10348 1.28678C3.57372 -0.155622 5.93488 -0.133052 7.37728 1.33719Z" fill="#5409E8"/>
</svg>
