<svg width="76" height="42" viewBox="0 0 76 42" fill="none" xmlns="http://www.w3.org/2000/svg">
<path fill-rule="evenodd" clip-rule="evenodd" d="M69.2695 34.4885C66.2934 27.1473 60.5446 21.7185 53.6119 17.8816C43.1419 12.0874 29.9702 9.9209 19.4383 10.3392C12.8192 10.6014 8.34903 13.0987 1.92214 14.8438C1.66183 14.9144 1.40341 14.7522 1.34504 14.4814C1.28627 14.2117 1.45016 13.9337 1.71008 13.8644C8.21217 12.0987 12.7386 9.59247 19.4352 9.32672C30.1138 8.9027 43.4679 11.1073 54.085 16.9822C61.209 20.9247 67.1014 26.5208 70.1601 34.0651C70.2632 34.3193 70.1481 34.6196 69.9022 34.7366C69.6563 34.8536 69.3726 34.7427 69.2695 34.4885Z" fill="#ADB5BD"/>
<path fill-rule="evenodd" clip-rule="evenodd" d="M0.900117 13.6709C0.922877 13.6634 1.07524 13.6163 1.19913 13.5629C1.71397 13.3444 2.58435 12.8767 3.65131 12.2197C7.22808 10.0114 13.0013 5.67289 14.8784 1.17618C14.9868 0.916794 15.272 0.792159 15.5157 0.897011C15.7593 1.00186 15.87 1.29621 15.7616 1.5556C13.8085 6.23437 7.84091 10.7913 4.11889 13.088C3.62017 13.3953 3.16172 13.6641 2.75894 13.886C4.119 14.0186 5.48076 14.114 6.84763 14.1935C10.7827 14.4208 14.114 15.4747 17.5534 17.4519C17.7834 17.5835 17.8616 17.8917 17.7272 18.1373C17.5939 18.3833 17.2973 18.476 17.0676 18.3432C13.7569 16.4408 10.5498 15.4239 6.76224 15.2046C4.97607 15.1004 3.19618 14.9685 1.42089 14.7666C1.24421 14.7466 0.785791 14.6891 0.723104 14.6704C0.365439 14.5641 0.37554 14.2302 0.38129 14.1565C0.383775 14.1209 0.439442 13.6801 0.900117 13.6709ZM0.920244 14.6821C0.907534 14.6821 0.894423 14.6833 0.880559 14.683C0.891724 14.6838 0.904836 14.6826 0.920244 14.6821Z" fill="#ADB5BD"/>
<path d="M73.1232 41.8922C71.4997 42.3272 69.831 41.3637 69.3959 39.7402C68.9609 38.1167 69.9244 36.448 71.5479 36.013C73.1714 35.5779 74.8402 36.5414 75.2752 38.1649C75.7102 39.7884 74.7467 41.4572 73.1232 41.8922Z" fill="#5409E8"/>
</svg>
